<?xml version="1.0" encoding="UTF-8" standalone="no"?>
<svg
   data-noselect=""
   viewBox="0 0 128 128"
   width="128"
   height="128"
   preserveAspectRatio="none"
   version="1.1"
   class="svg-canvas"
   id="svg202"
   sodipodi:docname="syber.cab.ico.svg"
   inkscape:version="1.1.2 (76b9e6a115, 2022-02-25)"
   xmlns:inkscape="http://www.inkscape.org/namespaces/inkscape"
   xmlns:sodipodi="http://sodipodi.sourceforge.net/DTD/sodipodi-0.dtd"
   xmlns="http://www.w3.org/2000/svg"
   xmlns:svg="http://www.w3.org/2000/svg">
  <sodipodi:namedview
     id="namedview204"
     pagecolor="#ffffff"
     bordercolor="#666666"
     borderopacity="1.0"
     inkscape:pageshadow="2"
     inkscape:pageopacity="0.0"
     inkscape:pagecheckerboard="true"
     showgrid="false"
     inkscape:zoom="2"
     inkscape:cx="-33.75"
     inkscape:cy="182.25"
     inkscape:window-width="1848"
     inkscape:window-height="1009"
     inkscape:window-x="72"
     inkscape:window-y="34"
     inkscape:window-maximized="1"
     inkscape:current-layer="svg202" />
  <defs
     id="defs2" />
  <defs
     id="defs198">
    <pattern
       id="wm_tile"
       x="0"
       y="0"
       width="20%"
       height="27%"
       patternunits="objectBoundingBox">
      <g
         id="wm_lm"
         transform="translate(-188.000000, -323.000000)"
         fill="#cccccc">
        <text
           font-size="15"
           transform="translate(270.490979, 373.245789) rotate(-390.000000) translate(-270.490979, -373.245789)"
           id="text194"><tspan
             x="187.490979"
             opacity=".3"
             y="378.245789"
             id="tspan192">copyright © copyright © </tspan></text>
      </g>
    </pattern>
  </defs>
  <g
     id="g3234"
     transform="matrix(0.71046383,0,0,0.53048781,-35.693718,3.103263)"
     style="fill:#008080">
    <path
       d="m 95.360228,38.712753 c 0.546791,0.218716 1.202939,-0.109358 1.421655,-0.656148 6.342767,-19.137661 24.496207,-32.0419117 45.274237,-32.0419117 20.77803,0 39.04083,12.9042507 45.27424,32.0419117 0.10935,0.437432 0.54679,0.765506 1.09358,0.765506 0.10936,0 0.21871,0 0.32807,0 0.54679,-0.218716 0.87487,-0.765506 0.65615,-1.421654 -6.56148,-20.012525 -25.58979,-33.5729249 -47.35204,-33.5729249 -21.76225,0 -40.79056,13.4510409 -47.35204,33.5729249 -0.328074,0.437432 0,1.09358 0.656148,1.312296 z"
       fill="#fff100"
       stroke-width="0"
       id="path9"
       style="fill:#008080" />
    <path
       d="m 127.94893,2.8433096 c 0,0 0.10936,0 0.10936,0 1.74973,-0.4374323 3.60881,-0.8748645 5.35854,-1.0935806 0.32808,0 0.54679,-0.3280742 0.43744,-0.6561484 0,-0.32807418 -0.32808,-0.5467903 -0.65615,-0.43743224 -1.85909,0.32807418 -3.71818,0.65614834 -5.46791,1.20293864 -0.32807,0.1093581 -0.43743,0.3280742 -0.43743,0.6561484 0.21872,0.2187161 0.43743,0.3280742 0.65615,0.3280742 z"
       fill="#fff100"
       stroke-width="0"
       id="path13"
       style="fill:#008080" />
    <path
       d="m 160.53763,4.7023966 c 1.74973,0.6561483 3.3901,1.4216548 5.03047,2.2965192 0.10936,0 0.21872,0.1093581 0.21872,0.1093581 0.21872,0 0.43743,-0.1093581 0.43743,-0.3280742 0.10936,-0.2187161 0,-0.5467903 -0.21871,-0.7655064 -1.64038,-0.8748645 -3.3901,-1.6403709 -5.13983,-2.2965193 -0.32808,-0.109358 -0.54679,0 -0.65615,0.3280742 -0.10936,0.2187161 0.10936,0.5467903 0.32807,0.6561484 z"
       fill="#fff100"
       stroke-width="0"
       id="path15"
       style="fill:#008080" />
    <path
       d="m 149.9299,1.749729 c 1.74973,0.3280741 3.60882,0.6561483 5.35855,1.2029386 0,0 0.10935,0 0.10935,0 0.21872,0 0.43744,-0.109358 0.54679,-0.4374322 0.10936,-0.3280742 -0.10935,-0.5467903 -0.32807,-0.6561484 -1.85909,-0.5467903 -3.60882,-0.87486446 -5.4679,-1.20293864 -0.32808,0 -0.54679,0.10935806 -0.65615,0.43743224 -0.10936,0.3280742 0.10936,0.6561484 0.43743,0.6561484 z"
       fill="#fff100"
       stroke-width="0"
       id="path17"
       style="fill:#008080" />
    <path
       d="m 138.88474,1.2029387 c 0,0 0.10935,0 0,0 0.98422,0 1.96844,-0.1093581 2.95266,-0.1093581 0.87487,0 1.74973,0 2.51524,0.1093581 0.32807,0 0.54679,-0.21871616 0.54679,-0.54679034 0,-0.32807418 -0.21872,-0.5467903 -0.54679,-0.5467903 C 143.47777,0.10935806 142.71227,0 141.8374,0 c -0.98422,0 -2.0778,0 -3.06202,0.10935806 -0.32808,0 -0.54679,0.32807418 -0.54679,0.5467903 0.10936,0.32807418 0.43743,0.54679034 0.65615,0.54679034 z"
       fill="#fff100"
       stroke-width="0"
       id="path19"
       style="fill:#008080" />
    <path
       d="m 117.55991,6.8895578 c 0.10936,0 0.21872,0 0.21872,-0.1093581 1.64037,-0.8748645 3.28074,-1.5310128 5.03047,-2.1871612 0.32808,-0.109358 0.43743,-0.4374322 0.32808,-0.6561483 -0.10936,-0.2187162 -0.43744,-0.4374323 -0.65615,-0.3280742 -1.74973,0.6561483 -3.49946,1.4216548 -5.13983,2.2965192 -0.32808,0 -0.43743,0.3280742 -0.32808,0.6561484 0.10936,0.2187161 0.32808,0.3280742 0.54679,0.3280742 z"
       fill="#fff100"
       stroke-width="0"
       id="path21"
       style="fill:#008080" />
    <path
       d="m 93.829215,29.85475 c 0.109359,0 0.218717,0.109358 0.218717,0.109358 0.218716,0 0.437432,-0.109358 0.437432,-0.328074 0.874864,-1.640371 1.859087,-3.171383 2.843309,-4.702396 0.218717,-0.218716 0.109358,-0.546791 -0.109358,-0.765507 -0.218716,-0.218716 -0.54679,-0.109358 -0.765506,0.109358 -1.093581,1.531013 -2.077803,3.171384 -2.952668,4.811755 -0.109358,0.218716 0,0.54679 0.328074,0.765506 z"
       fill="#fff100"
       stroke-width="0"
       id="path23"
       style="fill:#008080" />
    <path
       d="m 108.15512,12.904251 c 0.10936,0 0.21872,0 0.32808,-0.109358 1.42165,-1.093581 2.95266,-2.187161 4.48368,-3.1713837 0.21871,-0.1093581 0.32807,-0.5467903 0.10935,-0.7655064 -0.10935,-0.2187162 -0.54679,-0.3280742 -0.7655,-0.1093581 -1.53102,0.9842225 -3.06203,2.0778032 -4.59304,3.2807422 -0.21872,0.218716 -0.32808,0.54679 -0.10936,0.765506 0.21872,0 0.43743,0.109358 0.54679,0.109358 z"
       fill="#fff100"
       stroke-width="0"
       id="path25"
       style="fill:#008080" />
    <path
       d="m 100.28134,20.668673 c 0.10936,0 0.32808,-0.109358 0.43743,-0.218716 1.20294,-1.421655 2.40588,-2.733951 3.71818,-4.046248 0.21871,-0.218716 0.21871,-0.54679 0,-0.765506 -0.21872,-0.218717 -0.54679,-0.218717 -0.76551,0 -1.3123,1.312296 -2.62459,2.733951 -3.827531,4.155606 -0.218716,0.218716 -0.109358,0.54679 0.109358,0.765506 0.109353,0.109358 0.218713,0.109358 0.328073,0.109358 z"
       fill="#fff100"
       stroke-width="0"
       id="path27"
       style="fill:#008080" />
    <path
       d="m 170.37986,9.7328673 c 1.53101,0.9842227 3.06202,2.0778027 4.48368,3.1713837 0.10936,0.109358 0.21871,0.109358 0.32807,0.109358 0.10936,0 0.32808,-0.109358 0.43743,-0.218716 0.21872,-0.218716 0.10936,-0.54679 -0.10935,-0.765506 -1.53102,-1.202939 -3.06203,-2.2965197 -4.59304,-3.2807422 -0.21872,-0.2187161 -0.54679,-0.1093581 -0.76551,0.2187161 -0.10936,0.2187161 -0.10936,0.5467903 0.21872,0.7655064 z"
       fill="#fff100"
       stroke-width="0"
       id="path29"
       style="fill:#008080" />
    <path
       d="m 189.18944,29.526676 c 0.10936,0.218716 0.32808,0.328074 0.43744,0.328074 0.10935,0 0.21871,0 0.21871,-0.109358 0.21872,-0.109358 0.32808,-0.437432 0.21872,-0.765506 -0.87487,-1.640371 -1.96845,-3.171384 -3.06203,-4.702397 -0.21871,-0.218716 -0.54679,-0.328074 -0.7655,-0.109358 -0.21872,0.218716 -0.32808,0.546791 -0.10936,0.765507 1.20294,1.421654 2.18716,2.952667 3.06202,4.593038 z"
       fill="#fff100"
       stroke-width="0"
       id="path31"
       style="fill:#008080" />
    <path
       d="m 182.84668,20.449957 c 0.10935,0.109358 0.21871,0.218716 0.43743,0.218716 0.10936,0 0.21871,0 0.32807,-0.109358 0.21872,-0.218716 0.21872,-0.54679 0,-0.765506 -1.20294,-1.421655 -2.51523,-2.733952 -3.93689,-4.046248 -0.21871,-0.218716 -0.54679,-0.218716 -0.7655,0 -0.21872,0.218716 -0.21872,0.54679 0,0.765506 1.42165,1.312297 2.73395,2.624593 3.93689,3.93689 z"
       fill="#fff100"
       stroke-width="0"
       id="path33"
       style="fill:#008080" />
    <path
       d="m 192.57954,36.963024 c 0.10936,0.218716 0.32808,0.328074 0.54679,0.328074 0.10936,0 0.10936,0 0.21872,0 0.32807,-0.109358 0.43743,-0.437432 0.32807,-0.656148 -0.32807,-0.874864 -0.65614,-1.749729 -0.98422,-2.624593 -0.10936,-0.328075 -0.43743,-0.437433 -0.7655,-0.328075 -0.32808,0.109359 -0.43744,0.437433 -0.32808,0.765507 0.43743,0.874864 0.76551,1.749729 0.98422,2.515235 z"
       fill="#fff100"
       stroke-width="0"
       id="path35"
       style="fill:#008080" />
  </g>
  <g
     id="shape_dAo2NnXjl4"
     transform="matrix(0.9589121,0,0,3.0130375,28.336866,-57.915321)"
     filter=""
     style="fill:#008080">
    <g
       id="g172"
       style="fill:#008080">
      <svg
         version="1.1"
         width="108.68"
         height="87.414261"
         viewBox="0 0 108.68 87.414258"
         id="svg170"
         style="fill:#008080">
        <g
           data-width="59.433174622143"
           transform="translate(12.453413)"
           id="g168"
           style="fill:#008080">
          <path
             d="m 4.75,-1.25 q 2.05,0 3.37,-1.57 v 0 L 7.19,-3.6 q -0.96,1.14 -2.44,1.14 v 0 q -1.32,0 -2.25,-0.93 v 0 Q 1.57,-4.33 1.57,-5.65 v 0 q 0,-1.31 0.93,-2.25 v 0 q 0.93,-0.92 2.25,-0.92 v 0 q 1.48,0 2.44,1.13 v 0 L 8.12,-8.47 Q 6.8,-10.04 4.75,-10.04 v 0 q -1.82,0 -3.1,1.29 v 0 q -1.29,1.29 -1.29,3.1 v 0 q 0,1.83 1.29,3.11 v 0 q 1.28,1.29 3.1,1.29 z"
             transform="translate(0,46.707129)"
             fill="#FFF100"
             stroke="#fff100"
             stroke-width="0.02"
             data-glyph-w="20.062619079777"
             data-glyph-h="12.681044921875"
             data-glyph-ascender="10.19712890625"
             data-glyph-descender="-2.483916015625"
             id="path162"
             style="fill:#008080" />
          <path
             d="M 6.33,-3.67 H 2.4 L 1.44,-1.4 H 0.12 l 3.6,-8.49 H 5 L 8.6,-1.4 H 7.29 Z M 2.92,-4.88 H 5.81 L 4.36,-8.3 Z"
             transform="translate(20.062619,46.707129)"
             fill="#FFF100"
             stroke="#fff100"
             stroke-width="0.02"
             data-glyph-w="20.312199157902"
             data-glyph-h="12.681044921875"
             data-glyph-ascender="10.19712890625"
             data-glyph-descender="-2.483916015625"
             id="path164"
             style="fill:#008080" />
          <path
             d="m 0.59,-1.4 h 4.02 q 1.04,0 1.77,-0.73 v 0 Q 7.11,-2.86 7.11,-3.9 v 0 q 0,-1.04 -0.73,-1.77 v 0 Q 6.22,-5.83 6.04,-5.95 v 0 q 0.62,-0.67 0.62,-1.59 v 0 q 0,-0.97 -0.69,-1.66 v 0 Q 5.28,-9.89 4.31,-9.89 v 0 H 0.59 Z m 1.22,-3.79 h 2.8 q 0.54,0 0.91,0.38 v 0 Q 5.9,-4.43 5.9,-3.9 v 0 q 0,0.53 -0.38,0.91 v 0 q -0.37,0.38 -0.91,0.38 v 0 h -2.8 z m 0,-3.49 h 2.5 q 0.47,0 0.8,0.34 v 0 q 0.33,0.33 0.33,0.8 v 0 q 0,0.47 -0.33,0.81 v 0 Q 4.78,-6.4 4.31,-6.4 v 0 h -2.5 z"
             transform="translate(40.374818,46.707129)"
             fill="#FFF100"
             stroke="#fff100"
             stroke-width="0.02"
             data-glyph-w="19.058356384464"
             data-glyph-h="12.681044921875"
             data-glyph-ascender="10.19712890625"
             data-glyph-descender="-2.483916015625"
             id="path166"
             style="fill:#008080" />
        </g>
      </svg>
    </g>
  </g>
  <g
     id="g2266"
     transform="matrix(0.26663074,0,0,0.89260706,24.024041,-111.35679)"
     style="fill:#008080">
    <path
       d="m 15.804037,171.99951 c 1.498172,0 2.675307,-0.527 3.103357,-1.22967 H 283.86983 c 0.42805,0.70267 1.71221,1.22967 3.10336,1.22967 1.81922,0 3.31738,-0.81978 3.31738,-1.81522 0,-0.99545 -1.49816,-1.81522 -3.31738,-1.81522 -1.49817,0 -2.67531,0.527 -3.10336,1.22966 H 18.907394 c -0.42805,-0.70266 -1.712197,-1.22966 -3.103357,-1.22966 -1.819209,0 -3.317381,0.81977 -3.317381,1.81522 0,1.054 1.498172,1.81522 3.317381,1.81522 z"
       fill="#fff100"
       stroke-width="0"
       id="path37"
       style="fill:#008080" />
    <path
       d="m 286.97319,224.64092 c -1.49817,0 -2.67531,0.52699 -3.10336,1.22966 H 18.907394 c -0.42805,-0.70267 -1.712197,-1.22966 -3.103357,-1.22966 -1.819209,0 -3.317381,0.81977 -3.317381,1.81522 0,0.99544 1.498172,1.81522 3.317381,1.81522 1.498172,0 2.675307,-0.52701 3.103357,-1.22967 H 283.86983 c 0.42805,0.70266 1.71221,1.22967 3.10336,1.22967 1.81922,0 3.31738,-0.81978 3.31738,-1.81522 0.10702,-0.99545 -1.39115,-1.81522 -3.31738,-1.81522 z"
       fill="#fff100"
       stroke-width="0"
       id="path39"
       style="fill:#008080" />
    <path
       d="m 176.75053,172.64362 h -5.35061 c -0.32104,0 -0.53506,0.11711 -0.53506,0.29278 0,0.17566 0.21402,0.29278 0.53506,0.29278 h 5.35061 c 0.32104,0 0.53506,-0.11712 0.53506,-0.29278 0,-0.17567 -0.21402,-0.29278 -0.53506,-0.29278 z"
       fill="#fff100"
       stroke-width="0"
       id="path41"
       style="fill:#008080" />
    <path
       d="m 166.04931,172.64362 h -5.35063 c -0.32103,0 -0.53506,0.11711 -0.53506,0.29278 0,0.17566 0.21403,0.29278 0.53506,0.29278 h 5.35063 c 0.32103,0 0.53506,-0.11712 0.53506,-0.29278 0,-0.17567 -0.21403,-0.29278 -0.53506,-0.29278 z"
       fill="#fff100"
       stroke-width="0"
       id="path43"
       style="fill:#008080" />
    <path
       d="m 240.95791,172.64362 h -5.35061 c -0.32104,0 -0.53507,0.11711 -0.53507,0.29278 0,0.17566 0.21403,0.29278 0.53507,0.29278 h 5.35061 c 0.32103,0 0.53506,-0.11712 0.53506,-0.29278 0,-0.17567 -0.21403,-0.29278 -0.53506,-0.29278 z"
       fill="#fff100"
       stroke-width="0"
       id="path45"
       style="fill:#008080" />
    <path
       d="m 282.58568,172.64362 h -4.17347 c -0.32104,0 -0.53506,0.11711 -0.53506,0.29278 0,0.17566 0.21402,0.29278 0.53506,0.29278 h 4.17347 c 0.32105,0 0.53506,-0.11712 0.53506,-0.29278 0,-0.17567 -0.21401,-0.29278 -0.53506,-0.29278 z"
       fill="#fff100"
       stroke-width="0"
       id="path47"
       style="fill:#008080" />
    <path
       d="m 262.36037,172.64362 h -5.35061 c -0.32104,0 -0.53506,0.11711 -0.53506,0.29278 0,0.17566 0.21402,0.29278 0.53506,0.29278 h 5.35061 c 0.32103,0 0.53506,-0.11712 0.53506,-0.29278 0,-0.17567 -0.21403,-0.29278 -0.53506,-0.29278 z"
       fill="#fff100"
       stroke-width="0"
       id="path49"
       style="fill:#008080" />
    <path
       d="m 198.15299,172.64362 h -5.35062 c -0.32103,0 -0.53506,0.11711 -0.53506,0.29278 0,0.17566 0.21403,0.29278 0.53506,0.29278 h 5.35062 c 0.32104,0 0.53506,-0.11712 0.53506,-0.29278 0,-0.17567 -0.21402,-0.29278 -0.53506,-0.29278 z"
       fill="#fff100"
       stroke-width="0"
       id="path51"
       style="fill:#008080" />
    <path
       d="m 219.55545,172.64362 h -5.35062 c -0.32103,0 -0.53506,0.11711 -0.53506,0.29278 0,0.17566 0.21403,0.29278 0.53506,0.29278 h 5.35062 c 0.32103,0 0.53506,-0.11712 0.53506,-0.29278 0,-0.17567 -0.21403,-0.29278 -0.53506,-0.29278 z"
       fill="#fff100"
       stroke-width="0"
       id="path53"
       style="fill:#008080" />
    <path
       d="m 208.85422,172.64362 h -5.35061 c -0.32104,0 -0.53506,0.11711 -0.53506,0.29278 0,0.17566 0.21402,0.29278 0.53506,0.29278 h 5.35061 c 0.32103,0 0.53506,-0.11712 0.53506,-0.29278 0,-0.17567 -0.21403,-0.29278 -0.53506,-0.29278 z"
       fill="#fff100"
       stroke-width="0"
       id="path55"
       style="fill:#008080" />
    <path
       d="m 251.65913,172.64362 h -5.35061 c -0.32103,0 -0.53506,0.11711 -0.53506,0.29278 0,0.17566 0.21403,0.29278 0.53506,0.29278 h 5.35061 c 0.32104,0 0.53506,-0.11712 0.53506,-0.29278 0,-0.17567 -0.21402,-0.29278 -0.53506,-0.29278 z"
       fill="#fff100"
       stroke-width="0"
       id="path57"
       style="fill:#008080" />
    <path
       d="m 273.0616,172.64362 h -5.35062 c -0.32103,0 -0.53506,0.11711 -0.53506,0.29278 0,0.17566 0.21403,0.29278 0.53506,0.29278 h 5.35062 c 0.32103,0 0.53506,-0.11712 0.53506,-0.29278 0,-0.17567 -0.21403,-0.29278 -0.53506,-0.29278 z"
       fill="#fff100"
       stroke-width="0"
       id="path59"
       style="fill:#008080" />
    <path
       d="m 230.25668,172.64362 h -5.35061 c -0.32105,0 -0.53506,0.11711 -0.53506,0.29278 0,0.17566 0.21401,0.29278 0.53506,0.29278 h 5.35061 c 0.32104,0 0.53506,-0.11712 0.53506,-0.29278 0,-0.17567 -0.21402,-0.29278 -0.53506,-0.29278 z"
       fill="#fff100"
       stroke-width="0"
       id="path61"
       style="fill:#008080" />
    <path
       d="m 187.45176,172.64362 h -5.35061 c -0.32104,0 -0.53507,0.11711 -0.53507,0.29278 0,0.17566 0.21403,0.29278 0.53507,0.29278 h 5.35061 c 0.32103,0 0.53506,-0.11712 0.53506,-0.29278 0,-0.17567 -0.21403,-0.29278 -0.53506,-0.29278 z"
       fill="#fff100"
       stroke-width="0"
       id="path63"
       style="fill:#008080" />
    <path
       d="M 48.335775,172.64362 H 42.98516 c -0.321036,0 -0.535061,0.11711 -0.535061,0.29278 0,0.17566 0.214025,0.29278 0.535061,0.29278 h 5.350615 c 0.321037,0 0.535061,-0.11712 0.535061,-0.29278 0,-0.17567 -0.214024,-0.29278 -0.535061,-0.29278 z"
       fill="#fff100"
       stroke-width="0"
       id="path65"
       style="fill:#008080" />
    <path
       d="M 59.037004,172.64362 H 53.68639 c -0.321037,0 -0.535062,0.11711 -0.535062,0.29278 0,0.17566 0.214025,0.29278 0.535062,0.29278 h 5.350614 c 0.321037,0 0.535061,-0.11712 0.535061,-0.29278 0,-0.17567 -0.214024,-0.29278 -0.535061,-0.29278 z"
       fill="#fff100"
       stroke-width="0"
       id="path67"
       style="fill:#008080" />
    <path
       d="m 69.738234,172.64362 h -5.350615 c -0.321036,0 -0.535061,0.11711 -0.535061,0.29278 0,0.17566 0.214025,0.29278 0.535061,0.29278 h 5.350615 c 0.321037,0 0.535061,-0.11712 0.535061,-0.29278 0,-0.17567 -0.214024,-0.29278 -0.535061,-0.29278 z"
       fill="#fff100"
       stroke-width="0"
       id="path69"
       style="fill:#008080" />
    <path
       d="m 80.439463,172.64362 h -5.350615 c -0.321036,0 -0.535061,0.11711 -0.535061,0.29278 0,0.17566 0.214025,0.29278 0.535061,0.29278 h 5.350615 c 0.321037,0 0.535061,-0.11712 0.535061,-0.29278 0,-0.17567 -0.214024,-0.29278 -0.535061,-0.29278 z"
       fill="#fff100"
       stroke-width="0"
       id="path71"
       style="fill:#008080" />
    <path
       d="m 37.634545,172.64362 h -5.350614 c -0.321037,0 -0.535062,0.11711 -0.535062,0.29278 0,0.17566 0.214025,0.29278 0.535062,0.29278 h 5.350614 c 0.321037,0 0.535061,-0.11712 0.535061,-0.29278 0,-0.17567 -0.214024,-0.29278 -0.535061,-0.29278 z"
       fill="#fff100"
       stroke-width="0"
       id="path73"
       style="fill:#008080" />
    <path
       d="m 26.933316,172.64362 h -5.350615 c -0.321037,0 -0.535061,0.11711 -0.535061,0.29278 0,0.17566 0.214024,0.29278 0.535061,0.29278 h 5.350615 c 0.321037,0 0.535061,-0.11712 0.535061,-0.29278 0,-0.17567 -0.214024,-0.29278 -0.535061,-0.29278 z"
       fill="#fff100"
       stroke-width="0"
       id="path75"
       style="fill:#008080" />
    <path
       d="m 101.84193,172.64362 h -5.350623 c -0.321036,0 -0.535061,0.11711 -0.535061,0.29278 0,0.17566 0.214025,0.29278 0.535061,0.29278 h 5.350623 c 0.32103,0 0.53506,-0.11712 0.53506,-0.29278 0,-0.17567 -0.21403,-0.29278 -0.53506,-0.29278 z"
       fill="#fff100"
       stroke-width="0"
       id="path77"
       style="fill:#008080" />
    <path
       d="m 123.24438,172.64362 h -5.35061 c -0.32104,0 -0.53506,0.11711 -0.53506,0.29278 0,0.17566 0.21402,0.29278 0.53506,0.29278 h 5.35061 c 0.32104,0 0.53506,-0.11712 0.53506,-0.29278 0,-0.17567 -0.21402,-0.29278 -0.53506,-0.29278 z"
       fill="#fff100"
       stroke-width="0"
       id="path79"
       style="fill:#008080" />
    <path
       d="M 133.94562,172.64362 H 128.595 c -0.32104,0 -0.53507,0.11711 -0.53507,0.29278 0,0.17566 0.21403,0.29278 0.53507,0.29278 h 5.35062 c 0.32103,0 0.53506,-0.11712 0.53506,-0.29278 0,-0.17567 -0.21403,-0.29278 -0.53506,-0.29278 z"
       fill="#fff100"
       stroke-width="0"
       id="path81"
       style="fill:#008080" />
    <path
       d="m 144.64684,172.64362 h -5.35061 c -0.32104,0 -0.53506,0.11711 -0.53506,0.29278 0,0.17566 0.21402,0.29278 0.53506,0.29278 h 5.35061 c 0.32104,0 0.53506,-0.11712 0.53506,-0.29278 0,-0.17567 -0.21402,-0.29278 -0.53506,-0.29278 z"
       fill="#fff100"
       stroke-width="0"
       id="path83"
       style="fill:#008080" />
    <path
       d="m 155.34807,172.64362 h -5.35061 c -0.32104,0 -0.53506,0.11711 -0.53506,0.29278 0,0.17566 0.21402,0.29278 0.53506,0.29278 h 5.35061 c 0.32103,0 0.53506,-0.11712 0.53506,-0.29278 0,-0.17567 -0.21403,-0.29278 -0.53506,-0.29278 z"
       fill="#fff100"
       stroke-width="0"
       id="path85"
       style="fill:#008080" />
    <path
       d="m 91.140693,172.64362 h -5.350615 c -0.321036,0 -0.535061,0.11711 -0.535061,0.29278 0,0.17566 0.214025,0.29278 0.535061,0.29278 h 5.350615 c 0.321037,0 0.535061,-0.11712 0.535061,-0.29278 0,-0.17567 -0.214024,-0.29278 -0.535061,-0.29278 z"
       fill="#fff100"
       stroke-width="0"
       id="path87"
       style="fill:#008080" />
    <path
       d="m 112.54316,172.64362 h -5.35062 c -0.32104,0 -0.53506,0.11711 -0.53506,0.29278 0,0.17566 0.21402,0.29278 0.53506,0.29278 h 5.35062 c 0.32103,0 0.53506,-0.11712 0.53506,-0.29278 0,-0.17567 -0.21403,-0.29278 -0.53506,-0.29278 z"
       fill="#fff100"
       stroke-width="0"
       id="path89"
       style="fill:#008080" />
    <path
       d="m 262.36037,222.76714 h -5.35061 c -0.32104,0 -0.53506,0.11711 -0.53506,0.29278 0,0.17566 0.21402,0.29277 0.53506,0.29277 h 5.35061 c 0.32103,0 0.53506,-0.11711 0.53506,-0.29277 0,-0.17567 -0.21403,-0.29278 -0.53506,-0.29278 z"
       fill="#fff100"
       stroke-width="0"
       id="path91"
       style="fill:#008080" />
    <path
       d="m 273.0616,222.76714 h -5.35062 c -0.32103,0 -0.53506,0.11711 -0.53506,0.29278 0,0.17566 0.21403,0.29277 0.53506,0.29277 h 5.35062 c 0.32103,0 0.53506,-0.11711 0.53506,-0.29277 0,-0.17567 -0.21403,-0.29278 -0.53506,-0.29278 z"
       fill="#fff100"
       stroke-width="0"
       id="path93"
       style="fill:#008080" />
    <path
       d="m 282.58568,222.76714 h -4.17347 c -0.32104,0 -0.53506,0.11711 -0.53506,0.29278 0,0.17566 0.21402,0.29277 0.53506,0.29277 h 4.17347 c 0.32105,0 0.53506,-0.11711 0.53506,-0.29277 0,-0.17567 -0.21401,-0.29278 -0.53506,-0.29278 z"
       fill="#fff100"
       stroke-width="0"
       id="path95"
       style="fill:#008080" />
    <path
       d="m 80.439463,222.76714 h -5.350615 c -0.321036,0 -0.535061,0.11711 -0.535061,0.29278 0,0.17566 0.214025,0.29277 0.535061,0.29277 h 5.350615 c 0.321037,0 0.535061,-0.11711 0.535061,-0.29277 0,-0.17567 -0.214024,-0.29278 -0.535061,-0.29278 z"
       fill="#fff100"
       stroke-width="0"
       id="path97"
       style="fill:#008080" />
    <path
       d="m 101.84193,222.76714 h -5.350623 c -0.321036,0 -0.535061,0.11711 -0.535061,0.29278 0,0.17566 0.214025,0.29277 0.535061,0.29277 h 5.350623 c 0.32103,0 0.53506,-0.11711 0.53506,-0.29277 0,-0.17567 -0.21403,-0.29278 -0.53506,-0.29278 z"
       fill="#fff100"
       stroke-width="0"
       id="path99"
       style="fill:#008080" />
    <path
       d="m 91.140693,222.76714 h -5.350615 c -0.321036,0 -0.535061,0.11711 -0.535061,0.29278 0,0.17566 0.214025,0.29277 0.535061,0.29277 h 5.350615 c 0.321037,0 0.535061,-0.11711 0.535061,-0.29277 0,-0.17567 -0.214024,-0.29278 -0.535061,-0.29278 z"
       fill="#fff100"
       stroke-width="0"
       id="path101"
       style="fill:#008080" />
    <path
       d="m 123.24438,222.76714 h -5.35061 c -0.32104,0 -0.53506,0.11711 -0.53506,0.29278 0,0.17566 0.21402,0.29277 0.53506,0.29277 h 5.35061 c 0.32104,0 0.53506,-0.11711 0.53506,-0.29277 0,-0.17567 -0.21402,-0.29278 -0.53506,-0.29278 z"
       fill="#fff100"
       stroke-width="0"
       id="path103"
       style="fill:#008080" />
    <path
       d="M 133.94562,222.76714 H 128.595 c -0.32104,0 -0.53507,0.11711 -0.53507,0.29278 0,0.17566 0.21403,0.29277 0.53507,0.29277 h 5.35062 c 0.32103,0 0.53506,-0.11711 0.53506,-0.29277 0,-0.17567 -0.21403,-0.29278 -0.53506,-0.29278 z"
       fill="#fff100"
       stroke-width="0"
       id="path105"
       style="fill:#008080" />
    <path
       d="m 69.738234,222.76714 h -5.350615 c -0.321036,0 -0.535061,0.11711 -0.535061,0.29278 0,0.17566 0.214025,0.29277 0.535061,0.29277 h 5.350615 c 0.321037,0 0.535061,-0.11711 0.535061,-0.29277 0,-0.17567 -0.214024,-0.29278 -0.535061,-0.29278 z"
       fill="#fff100"
       stroke-width="0"
       id="path107"
       style="fill:#008080" />
    <path
       d="m 112.54316,222.76714 h -5.35062 c -0.32104,0 -0.53506,0.11711 -0.53506,0.29278 0,0.17566 0.21402,0.29277 0.53506,0.29277 h 5.35062 c 0.32103,0 0.53506,-0.11711 0.53506,-0.29277 0,-0.17567 -0.21403,-0.29278 -0.53506,-0.29278 z"
       fill="#fff100"
       stroke-width="0"
       id="path109"
       style="fill:#008080" />
    <path
       d="M 59.037004,222.76714 H 53.68639 c -0.321037,0 -0.535062,0.11711 -0.535062,0.29278 0,0.17566 0.214025,0.29277 0.535062,0.29277 h 5.350614 c 0.321037,0 0.535061,-0.11711 0.535061,-0.29277 0,-0.17567 -0.214024,-0.29278 -0.535061,-0.29278 z"
       fill="#fff100"
       stroke-width="0"
       id="path111"
       style="fill:#008080" />
    <path
       d="m 37.634545,222.76714 h -5.350614 c -0.321037,0 -0.535062,0.11711 -0.535062,0.29278 0,0.17566 0.214025,0.29277 0.535062,0.29277 h 5.350614 c 0.321037,0 0.535061,-0.11711 0.535061,-0.29277 0,-0.17567 -0.214024,-0.29278 -0.535061,-0.29278 z"
       fill="#fff100"
       stroke-width="0"
       id="path113"
       style="fill:#008080" />
    <path
       d="m 26.933316,222.76714 h -5.350615 c -0.321037,0 -0.535061,0.11711 -0.535061,0.29278 0,0.17566 0.214024,0.29277 0.535061,0.29277 h 5.350615 c 0.321037,0 0.535061,-0.11711 0.535061,-0.29277 0,-0.17567 -0.214024,-0.29278 -0.535061,-0.29278 z"
       fill="#fff100"
       stroke-width="0"
       id="path115"
       style="fill:#008080" />
    <path
       d="M 48.335775,222.76714 H 42.98516 c -0.321036,0 -0.535061,0.11711 -0.535061,0.29278 0,0.17566 0.214025,0.29277 0.535061,0.29277 h 5.350615 c 0.321037,0 0.535061,-0.11711 0.535061,-0.29277 0,-0.17567 -0.214024,-0.29278 -0.535061,-0.29278 z"
       fill="#fff100"
       stroke-width="0"
       id="path117"
       style="fill:#008080" />
    <path
       d="m 166.04931,222.76714 h -5.35063 c -0.32103,0 -0.53506,0.11711 -0.53506,0.29278 0,0.17566 0.21403,0.29277 0.53506,0.29277 h 5.35063 c 0.32103,0 0.53506,-0.11711 0.53506,-0.29277 0,-0.17567 -0.21403,-0.29278 -0.53506,-0.29278 z"
       fill="#fff100"
       stroke-width="0"
       id="path119"
       style="fill:#008080" />
    <path
       d="m 198.15299,222.76714 h -5.35062 c -0.32103,0 -0.53506,0.11711 -0.53506,0.29278 0,0.17566 0.21403,0.29277 0.53506,0.29277 h 5.35062 c 0.32104,0 0.53506,-0.11711 0.53506,-0.29277 0,-0.17567 -0.21402,-0.29278 -0.53506,-0.29278 z"
       fill="#fff100"
       stroke-width="0"
       id="path121"
       style="fill:#008080" />
    <path
       d="m 144.64684,222.76714 h -5.35061 c -0.32104,0 -0.53506,0.11711 -0.53506,0.29278 0,0.17566 0.21402,0.29277 0.53506,0.29277 h 5.35061 c 0.32104,0 0.53506,-0.11711 0.53506,-0.29277 0,-0.17567 -0.21402,-0.29278 -0.53506,-0.29278 z"
       fill="#fff100"
       stroke-width="0"
       id="path123"
       style="fill:#008080" />
    <path
       d="m 219.55545,222.76714 h -5.35062 c -0.32103,0 -0.53506,0.11711 -0.53506,0.29278 0,0.17566 0.21403,0.29277 0.53506,0.29277 h 5.35062 c 0.32103,0 0.53506,-0.11711 0.53506,-0.29277 0,-0.17567 -0.21403,-0.29278 -0.53506,-0.29278 z"
       fill="#fff100"
       stroke-width="0"
       id="path125"
       style="fill:#008080" />
    <path
       d="m 230.25668,222.76714 h -5.35061 c -0.32105,0 -0.53506,0.11711 -0.53506,0.29278 0,0.17566 0.21401,0.29277 0.53506,0.29277 h 5.35061 c 0.32104,0 0.53506,-0.11711 0.53506,-0.29277 0,-0.17567 -0.21402,-0.29278 -0.53506,-0.29278 z"
       fill="#fff100"
       stroke-width="0"
       id="path127"
       style="fill:#008080" />
    <path
       d="m 240.95791,222.76714 h -5.35061 c -0.32104,0 -0.53507,0.11711 -0.53507,0.29278 0,0.17566 0.21403,0.29277 0.53507,0.29277 h 5.35061 c 0.32103,0 0.53506,-0.11711 0.53506,-0.29277 0,-0.17567 -0.21403,-0.29278 -0.53506,-0.29278 z"
       fill="#fff100"
       stroke-width="0"
       id="path129"
       style="fill:#008080" />
    <path
       d="m 208.85422,222.76714 h -5.35061 c -0.32104,0 -0.53506,0.11711 -0.53506,0.29278 0,0.17566 0.21402,0.29277 0.53506,0.29277 h 5.35061 c 0.32103,0 0.53506,-0.11711 0.53506,-0.29277 0,-0.17567 -0.21403,-0.29278 -0.53506,-0.29278 z"
       fill="#fff100"
       stroke-width="0"
       id="path131"
       style="fill:#008080" />
    <path
       d="m 155.34807,222.76714 h -5.35061 c -0.32104,0 -0.53506,0.11711 -0.53506,0.29278 0,0.17566 0.21402,0.29277 0.53506,0.29277 h 5.35061 c 0.32103,0 0.53506,-0.11711 0.53506,-0.29277 0,-0.17567 -0.21403,-0.29278 -0.53506,-0.29278 z"
       fill="#fff100"
       stroke-width="0"
       id="path133"
       style="fill:#008080" />
    <path
       d="m 187.45176,222.76714 h -5.35061 c -0.32104,0 -0.53507,0.11711 -0.53507,0.29278 0,0.17566 0.21403,0.29277 0.53507,0.29277 h 5.35061 c 0.32103,0 0.53506,-0.11711 0.53506,-0.29277 0,-0.17567 -0.21403,-0.29278 -0.53506,-0.29278 z"
       fill="#fff100"
       stroke-width="0"
       id="path135"
       style="fill:#008080" />
    <path
       d="m 251.65913,222.76714 h -5.35061 c -0.32103,0 -0.53506,0.11711 -0.53506,0.29278 0,0.17566 0.21403,0.29277 0.53506,0.29277 h 5.35061 c 0.32104,0 0.53506,-0.11711 0.53506,-0.29277 0,-0.17567 -0.21402,-0.29278 -0.53506,-0.29278 z"
       fill="#fff100"
       stroke-width="0"
       id="path137"
       style="fill:#008080" />
    <path
       d="m 176.75053,222.76714 h -5.35061 c -0.32104,0 -0.53506,0.11711 -0.53506,0.29278 0,0.17566 0.21402,0.29277 0.53506,0.29277 h 5.35061 c 0.32104,0 0.53506,-0.11711 0.53506,-0.29277 0,-0.17567 -0.21402,-0.29278 -0.53506,-0.29278 z"
       fill="#fff100"
       stroke-width="0"
       id="path139"
       style="fill:#008080" />
  </g>
  <g
     id="shape_V2Q1v97SSd"
     transform="matrix(0.48499304,0,0,0.43191873,-32.128233,2.5994381)"
     filter=""
     style="fill:#008080">
    <g
       id="g189"
       style="fill:#008080">
      <svg
         version="1.1"
         width="563"
         height="519.5"
         viewBox="0 0 563 519.5"
         id="svg187"
         style="fill:#008080">
        <g
           data-width="273.177160405455"
           transform="translate(72.66142)"
           id="g185"
           style="fill:#008080">
          <path
             d="M 32.37,-2.02 H 1.44 v -10.26 h 3.47 v 6.86 H 28.9 V -27.24 H 1.44 v -29.11 h 30.93 v 10.04 H 28.9 v -6.58 H 4.91 v 22.18 h 27.46 z"
             transform="translate(0,283.75)"
             fill="#FFF100"
             stroke="#fff100"
             stroke-width="0.12"
             data-glyph-w="53.811782081091"
             data-glyph-h="75.64575"
             data-glyph-ascender="62.06275"
             data-glyph-descender="-13.583"
             id="path175"
             style="fill:#008080" />
          <path
             d="M 19.8,-1.08 H 16.33 V -33.09 L 1.44,-56.86 h 4.12 l 12.5,20.08 13.01,-20.08 h 4.19 L 19.8,-33.23 Z"
             transform="translate(53.811782,283.75)"
             fill="#FFF100"
             stroke="#fff100"
             stroke-width="0.12"
             data-glyph-w="56.701782081091"
             data-glyph-h="75.64575"
             data-glyph-ascender="62.06275"
             data-glyph-descender="-13.583"
             id="path177"
             style="fill:#008080" />
          <path
             d="m 32.22,-56.64 -4.77,25.57 h 3.98 V -1.81 H 1.44 v -54.83 z m -4.19,3.54 H 4.91 v 22.03 h 19 z M 27.96,-5.2 V -27.6 H 4.91 v 22.4 z"
             transform="translate(110.51356,283.75)"
             fill="#FFF100"
             stroke="#fff100"
             stroke-width="0.12"
             data-glyph-w="53.667282081091"
             data-glyph-h="75.64575"
             data-glyph-ascender="62.06275"
             data-glyph-descender="-13.583"
             id="path179"
             style="fill:#008080" />
          <path
             d="M 32.73,-1.59 H 1.44 v -54.98 h 31.29 v 3.47 H 4.91 v 22.25 h 27.82 v 3.54 H 4.91 v 22.25 h 27.82 z"
             transform="translate(164.18085,283.75)"
             fill="#FFF100"
             stroke="#fff100"
             stroke-width="0.12"
             data-glyph-w="54.173032081091"
             data-glyph-h="75.64575"
             data-glyph-ascender="62.06275"
             data-glyph-descender="-13.583"
             id="path181"
             style="fill:#008080" />
          <path
             d="M 33.38,-1.01 H 29.69 L 21.02,-26.73 H 4.91 V -1.08 H 1.44 v -55.56 h 29.84 v 29.91 H 24.71 Z M 27.82,-30.2 V -53.1 H 4.91 v 22.9 z"
             transform="translate(218.35388,283.75)"
             fill="#FFF100"
             stroke="#fff100"
             stroke-width="0.12"
             data-glyph-w="54.823282081091"
             data-glyph-h="75.64575"
             data-glyph-ascender="62.06275"
             data-glyph-descender="-13.583"
             id="path183"
             style="fill:#008080" />
        </g>
      </svg>
    </g>
  </g>
</svg>
