<?xml version="1.0" standalone="no"?>
<!DOCTYPE svg PUBLIC "-//W3C//DTD SVG 20010904//EN"
 "http://www.w3.org/TR/2001/REC-SVG-20010904/DTD/svg10.dtd">
<svg version="1.0" xmlns="http://www.w3.org/2000/svg"
 width="700.000000pt" height="700.000000pt" viewBox="0 0 700.000000 700.000000"
 preserveAspectRatio="xMidYMid meet">
<metadata>
Created by potrace 1.14, written by Peter Selinger 2001-2017
</metadata>
<g transform="translate(0.000000,700.000000) scale(0.100000,-0.100000)"
fill="#000000" stroke="none">
<path d="M3425 6819 c-12 -19 2 -21 118 -22 112 0 143 5 132 24 -9 13 -242 12
-250 -2z"/>
<path d="M3109 6795 c-102 -17 -124 -24 -110 -38 7 -7 36 -7 98 3 148 21 153
23 153 41 0 12 -47 10 -141 -6z"/>
<path d="M3856 6802 c-9 -15 7 -22 61 -29 27 -3 76 -11 110 -18 60 -12 98 -6
78 13 -21 20 -239 49 -249 34z"/>
<path d="M2709 6696 c-113 -39 -124 -45 -111 -58 12 -12 234 60 229 75 -6 19
-19 17 -118 -17z"/>
<path d="M3285 6704 c-156 -19 -183 -24 -303 -50 -442 -99 -826 -319 -1070
-613 -62 -74 -90 -116 -149 -225 -39 -73 -42 -81 -27 -97 8 -9 23 -16 32 -14
9 2 20 4 24 4 3 1 26 39 51 85 339 636 1258 983 2177 820 211 -37 453 -118
630 -211 287 -151 528 -381 648 -620 18 -34 37 -65 44 -69 23 -15 46 -14 59 2
29 35 -111 259 -254 406 -104 107 -155 150 -277 232 -97 66 -305 170 -430 216
-87 32 -309 92 -390 106 -25 4 -47 8 -50 9 -3 1 -34 5 -70 9 -36 5 -74 10 -85
13 -48 11 -466 9 -560 -3z"/>
<path d="M4272 6710 c5 -16 227 -90 234 -78 10 16 -6 25 -102 57 -94 32 -138
39 -132 21z"/>
<path d="M2331 6535 c-100 -52 -122 -70 -94 -77 21 -5 209 92 206 107 -4 20
-30 14 -112 -30z"/>
<path d="M4660 6566 c0 -18 187 -117 207 -109 23 9 -4 31 -99 79 -95 48 -108
51 -108 30z"/>
<path d="M2003 6322 c-77 -61 -91 -80 -68 -88 17 -7 173 113 174 134 2 25 -36
9 -106 -46z"/>
<path d="M4995 6369 c-4 -6 -5 -11 -4 -13 2 -1 38 -27 79 -57 95 -70 98 -72
111 -64 14 9 -11 36 -92 96 -69 51 -83 57 -94 38z"/>
<path d="M1777 6108 c-9 -13 -28 -36 -42 -53 -50 -55 -60 -76 -44 -86 21 -13
23 -12 42 19 9 15 34 47 57 72 22 25 40 51 40 58 0 20 -37 13 -53 -10z"/>
<path d="M5280 6119 c0 -6 30 -44 67 -84 51 -57 70 -72 80 -64 15 13 1 34 -74
112 -43 45 -73 60 -73 36z"/>
<path d="M5495 5851 c-9 -16 37 -101 55 -101 28 0 29 10 7 52 -23 42 -52 65
-62 49z"/>
<path d="M1516 4848 c-26 -41 -24 -110 4 -138 24 -24 45 -17 63 20 l12 24
1923 0 c1058 1 1927 -1 1932 -4 4 -3 10 -15 14 -27 8 -26 34 -37 52 -22 8 6
19 29 24 51 25 90 -49 165 -80 82 l-10 -24 -1927 0 -1928 0 -17 30 c-20 36
-42 38 -62 8z"/>
<path d="M1791 4662 c-6 -2 -11 -10 -11 -18 0 -17 81 -15 87 2 4 12 -54 23
-76 16z"/>
<path d="M2107 4662 c-33 -7 -11 -27 31 -29 29 -1 42 2 42 11 0 14 -42 24 -73
18z"/>
<path d="M2422 4662 c-13 -2 -21 -9 -19 -15 5 -15 87 -16 87 -2 0 13 -38 22
-68 17z"/>
<path d="M2588 4662 c-47 -6 -33 -29 17 -29 29 0 45 4 45 12 0 15 -25 22 -62
17z"/>
<path d="M2745 4660 c-16 -3 -29 -10 -27 -15 3 -14 84 -13 89 1 5 15 -24 21
-62 14z"/>
<path d="M2886 4662 c-32 -7 -10 -27 30 -27 26 0 40 5 42 15 2 15 -29 20 -72
12z"/>
<path d="M3028 4653 c-7 -9 -6 -14 3 -17 25 -8 82 -1 86 11 6 16 -76 22 -89 6z"/>
<path d="M3207 4662 c-16 -2 -27 -8 -24 -15 5 -16 85 -18 91 -2 5 15 -24 22
-67 17z"/>
<path d="M3363 4662 c-13 -2 -23 -10 -23 -17 0 -17 82 -15 87 2 4 12 -31 20
-64 15z"/>
<path d="M3532 4662 c-28 -2 -42 -7 -39 -15 4 -14 86 -17 94 -4 9 15 -11 22
-55 19z"/>
<path d="M3693 4663 c-59 -6 -57 -29 2 -30 38 -1 45 1 45 18 0 10 -1 18 -2 17
-2 -1 -22 -3 -45 -5z"/>
<path d="M3835 4660 c-39 -7 -34 -24 7 -26 37 -2 58 4 58 16 0 12 -31 17 -65
10z"/>
<path d="M3982 4662 c-13 -2 -21 -9 -19 -15 5 -15 87 -16 87 -2 0 13 -38 22
-68 17z"/>
<path d="M4137 4662 c-9 -2 -17 -9 -17 -16 0 -8 16 -13 45 -13 35 -1 45 3 45
16 0 16 -30 21 -73 13z"/>
<path d="M4312 4661 c-18 -4 -32 -10 -31 -16 2 -12 77 -17 84 -5 9 15 -20 26
-53 21z"/>
<path d="M4453 4662 c-13 -2 -23 -9 -23 -16 0 -9 15 -13 46 -12 26 1 46 6 45
11 -2 13 -39 22 -68 17z"/>
<path d="M4601 4662 c-6 -2 -11 -9 -11 -16 0 -16 82 -16 87 0 4 12 -54 23 -76
16z"/>
<path d="M4928 4662 c-16 -2 -28 -9 -28 -17 0 -16 82 -15 87 1 5 14 -22 21
-59 16z"/>
<path d="M5069 4657 c-20 -7 -22 -10 -8 -17 13 -8 37 -8 82 -1 4 0 7 5 7 10 0
13 -54 19 -81 8z"/>
<path d="M5402 4660 c-41 -6 -42 -24 -2 -27 20 -2 33 3 37 13 7 20 4 21 -35
14z"/>
<path d="M1622 4648 c6 -18 85 -19 92 -2 4 11 -6 14 -45 14 -36 0 -49 -4 -47
-12z"/>
<path d="M1932 4648 c7 -19 85 -21 92 -3 4 12 -5 15 -45 15 -36 0 -49 -4 -47
-12z"/>
<path d="M2246 4645 c7 -18 85 -16 92 3 2 8 -11 12 -47 12 -40 0 -49 -3 -45
-15z"/>
<path d="M4743 4648 c5 -18 85 -18 91 -1 4 10 -7 13 -45 13 -36 0 -49 -4 -46
-12z"/>
<path d="M5210 4647 c0 -9 13 -13 40 -12 57 2 62 4 55 15 -10 16 -95 13 -95
-3z"/>
<path d="M2413 4115 c-45 -19 -109 -126 -128 -215 -1 -3 -7 -25 -14 -50 -7
-25 -14 -52 -16 -60 -3 -16 -14 -83 -21 -128 -3 -15 -6 -115 -8 -222 -3 -173
6 -316 28 -415 43 -199 95 -308 161 -340 30 -14 38 -14 67 -2 18 8 40 23 49
33 26 30 63 104 82 164 17 55 17 56 -7 120 -19 52 -26 61 -31 45 -22 -62 -55
-125 -76 -143 -78 -74 -165 52 -199 289 -15 99 -15 314 0 418 33 236 124 367
201 290 22 -22 72 -124 72 -146 0 -22 12 -2 36 58 l22 56 -21 63 c-31 91 -54
133 -95 168 -40 35 -55 38 -102 17z"/>
<path d="M3455 4099 c-8 -11 -11 -28 -20 -104 -4 -33 -9 -69 -10 -80 -2 -11
-10 -74 -20 -140 -9 -66 -18 -136 -21 -155 -7 -56 -15 -113 -19 -140 -4 -23
-29 -215 -41 -305 -3 -22 -7 -51 -9 -65 -2 -14 -6 -43 -9 -65 -10 -77 -17
-130 -21 -155 -6 -41 -14 -102 -20 -147 l-6 -43 36 0 c19 0 35 3 36 8 0 4 2
14 3 22 2 8 7 42 11 75 5 33 9 67 10 75 2 8 6 44 10 79 14 121 8 115 114 115
51 1 96 -1 101 -4 4 -3 13 -45 19 -95 7 -49 14 -103 16 -120 3 -16 7 -52 11
-80 8 -72 10 -75 47 -75 l34 0 -8 58 c-5 31 -11 80 -14 107 -6 50 -8 66 -19
140 -3 22 -9 60 -12 85 -3 25 -7 54 -8 65 -2 11 -7 47 -10 80 -4 33 -9 67 -11
75 -2 8 -7 40 -10 70 -3 30 -8 66 -10 80 -3 22 -20 142 -30 217 -2 16 -8 66
-15 113 -7 47 -14 98 -16 113 -2 15 -6 47 -9 70 -3 23 -8 60 -11 82 -3 22 -7
41 -8 42 -7 8 -57 10 -61 2z m39 -349 c4 -36 9 -74 11 -85 6 -27 13 -81 21
-151 3 -32 7 -61 9 -64 2 -3 6 -34 10 -70 4 -36 9 -73 10 -82 2 -10 -2 -18 -8
-19 -44 -4 -114 -4 -125 -1 -11 4 -10 42 3 112 2 9 6 43 10 75 4 33 8 71 10
85 2 14 6 43 9 65 3 22 10 72 16 110 5 39 10 76 10 84 0 33 8 1 14 -59z"/>
<path d="M4354 4101 c-2 -2 -4 -319 -4 -703 l0 -698 113 0 c82 0 118 4 133 15
36 24 69 118 90 250 7 46 7 234 0 295 -4 30 -16 87 -26 126 -18 66 -18 78 -5
145 14 73 15 309 1 370 -18 80 -49 158 -70 178 -22 21 -35 23 -126 25 -56 0
-104 -1 -106 -3z m220 -229 c43 -83 37 -294 -10 -333 -22 -18 -134 -17 -143 1
-6 12 -7 294 -2 348 1 8 22 12 71 12 66 0 70 -1 84 -28z m-6 -551 c7 -1 23
-22 35 -48 38 -85 27 -301 -19 -354 -10 -11 -31 -15 -86 -13 -40 1 -75 2 -78
3 -8 2 -6 405 2 412 7 4 84 4 146 0z"/>
<path d="M1624 2208 c-9 -14 1 -19 42 -21 28 -1 40 2 42 13 2 11 -8 15 -38 16
-22 1 -43 -3 -46 -8z"/>
<path d="M1782 2201 c2 -12 13 -16 42 -14 66 3 63 26 -5 29 -32 1 -39 -2 -37
-15z"/>
<path d="M1933 2207 c-8 -14 4 -20 42 -22 20 0 41 5 47 12 11 14 10 15 -45 17
-21 1 -41 -2 -44 -7z"/>
<path d="M2092 2201 c4 -21 82 -21 86 0 2 10 -9 14 -43 15 -36 0 -45 -3 -43
-15z"/>
<path d="M2246 2204 c-5 -13 5 -16 49 -16 37 0 46 3 43 14 -6 17 -86 19 -92 2z"/>
<path d="M2403 2207 c-7 -12 1 -17 28 -19 44 -2 59 2 59 15 0 15 -78 19 -87 4z"/>
<path d="M2554 2209 c-2 -4 1 -11 8 -15 11 -7 25 -8 74 -5 9 1 14 7 12 13 -5
14 -86 19 -94 7z"/>
<path d="M2713 2207 c-8 -13 12 -23 44 -21 15 1 34 3 41 3 8 1 12 7 10 13 -5
15 -86 19 -95 5z"/>
<path d="M2874 2208 c-10 -16 6 -24 43 -23 53 3 53 30 0 30 -21 1 -41 -3 -43
-7z"/>
<path d="M3026 2203 c-5 -12 6 -15 49 -15 37 0 46 3 43 14 -6 18 -86 18 -92 1z"/>
<path d="M3183 2207 c-11 -18 17 -25 80 -18 4 1 7 7 7 14 0 15 -78 19 -87 4z"/>
<path d="M3344 2209 c-9 -16 6 -29 29 -25 12 3 30 5 40 5 10 1 17 6 15 13 -5
13 -76 20 -84 7z"/>
<path d="M3500 2210 c-7 -4 -10 -12 -7 -16 4 -8 19 -9 85 -5 8 1 12 7 10 13
-5 14 -69 20 -88 8z"/>
<path d="M3654 2208 c-8 -13 -4 -16 31 -18 46 -3 55 -1 55 13 0 15 -77 20 -86
5z"/>
<path d="M3810 2200 c0 -15 12 -17 78 -11 6 1 12 7 12 14 0 8 -16 12 -45 13
-35 0 -45 -4 -45 -16z"/>
<path d="M3963 2208 c-8 -15 4 -20 47 -22 31 -2 40 2 40 14 0 12 -10 16 -41
16 -22 0 -43 -4 -46 -8z"/>
<path d="M4122 2201 c2 -9 13 -15 26 -14 12 0 31 1 43 2 40 2 13 26 -30 26
-32 1 -41 -3 -39 -14z"/>
<path d="M4279 2209 c-7 -4 -10 -11 -6 -15 12 -13 77 -11 89 3 6 7 9 13 7 14
-30 6 -79 5 -90 -2z"/>
<path d="M4433 2208 c-9 -15 6 -22 48 -23 30 -1 39 3 37 14 -3 17 -75 24 -85
9z"/>
<path d="M4590 2210 c-16 -10 14 -26 45 -24 11 1 26 2 33 3 8 1 12 6 10 13 -5
14 -69 20 -88 8z"/>
<path d="M4744 2208 c-9 -14 0 -19 32 -20 46 -1 54 1 54 15 0 14 -78 19 -86 5z"/>
<path d="M4904 2209 c-10 -16 4 -24 43 -24 25 1 38 5 38 14 0 16 -72 24 -81
10z"/>
<path d="M5053 2207 c-8 -14 4 -20 42 -22 20 0 41 5 47 12 11 14 10 15 -45 17
-21 1 -41 -2 -44 -7z"/>
<path d="M5214 2208 c-10 -16 6 -24 43 -23 53 3 53 30 0 30 -21 1 -41 -3 -43
-7z"/>
<path d="M5370 2205 c0 -7 6 -15 14 -18 20 -8 57 4 53 17 -5 15 -67 16 -67 1z"/>
<path d="M5476 2111 c-9 -9 -16 -23 -16 -29 0 -7 -3 -13 -7 -13 -5 -1 -875 -2
-1935 -3 l-1928 -1 -11 27 c-8 20 -19 28 -36 28 -43 0 -60 -74 -32 -147 14
-36 60 -29 73 13 l6 20 1929 0 1928 0 16 -28 c31 -54 76 -27 82 51 5 70 -36
119 -69 82z"/>
<path d="M1640 1494 c0 -3 88 -130 195 -282 l195 -277 0 -378 0 -378 48 3 47
3 0 378 0 378 125 170 c69 94 131 178 138 187 65 86 142 192 142 197 0 3 -26
5 -57 3 l-57 -3 -163 -225 c-90 -124 -167 -228 -172 -232 -4 -5 -80 98 -170
227 l-164 235 -53 0 c-30 0 -54 -3 -54 -6z"/>
<path d="M3139 1480 c0 -20 0 -1227 0 -1260 l1 -25 398 0 397 0 1 348 1 347
-52 0 -52 0 39 188 c21 103 41 198 43 212 2 14 4 25 5 25 1 0 4 14 6 30 3 17
11 55 19 85 8 30 12 57 9 60 -3 3 -188 5 -410 5 -354 0 -404 -1 -405 -15z
m701 -79 c0 -6 -7 -38 -14 -73 -8 -35 -17 -75 -20 -91 -3 -15 -7 -35 -10 -45
-3 -9 -7 -34 -11 -56 -3 -21 -7 -41 -9 -45 -3 -3 -7 -24 -11 -46 -3 -22 -12
-65 -19 -95 l-13 -55 -249 0 -249 0 -1 245 c0 135 1 251 4 258 5 15 602 18
602 3z m1 -633 c0 -21 0 -135 0 -253 0 -118 0 -219 0 -225 -1 -6 -109 -10
-304 -10 l-303 0 1 253 c0 138 3 257 7 262 4 7 114 10 302 10 l296 0 1 -37z"/>
<path d="M4570 1490 c-5 -3 -9 -297 -9 -653 l0 -647 417 2 417 3 0 40 0 40
-362 1 c-199 0 -365 3 -369 7 -4 4 -8 122 -8 262 l-1 255 330 -1 c182 0 348 0
370 1 41 0 41 0 39 38 -1 20 -2 40 -3 43 0 3 -157 6 -348 7 -192 0 -357 1
-368 1 -19 1 -20 7 -18 248 1 137 2 254 2 261 1 9 67 12 304 12 166 0 332 -1
368 0 l66 0 -1 40 c-1 28 -5 40 -16 41 -49 4 -803 3 -810 -1z"/>
<path d="M5999 1470 c-1 -34 -1 -1228 0 -1263 1 -27 3 -28 49 -25 l47 3 0 290
c0 160 3 295 7 300 4 7 81 10 209 10 168 0 203 -3 210 -15 5 -8 45 -112 89
-230 44 -118 84 -224 89 -235 5 -11 19 -45 30 -75 l21 -55 46 2 c25 0 47 3 48
5 3 2 -77 223 -101 278 -3 8 -7 17 -8 20 0 3 -11 32 -24 65 -13 33 -38 101
-56 150 l-33 91 84 -1 c52 -1 84 3 85 9 4 41 3 679 -1 689 -4 10 -93 13 -397
12 l-393 0 -1 -25z m698 -330 l0 -270 -301 0 -301 0 1 263 c1 144 2 265 3 270
0 4 135 7 299 7 l299 0 0 -270z"/>
<path d="M209 1482 c-7 -42 -2 -675 6 -680 5 -3 169 -6 364 -6 l355 -1 1 -235
c0 -129 -1 -244 -3 -255 -3 -20 -11 -20 -315 -19 l-312 0 -2 50 c-1 27 -2 64
-2 81 -1 32 -2 33 -41 31 -23 -1 -44 -6 -47 -12 -7 -11 -12 -203 -5 -223 2 -8
111 -11 413 -11 l409 0 0 339 c0 186 -3 339 -7 340 -5 1 -168 2 -363 2 l-355
2 -1 258 c-2 256 -2 257 20 258 87 4 589 3 599 -1 8 -3 12 -31 12 -80 l0 -74
38 1 c20 0 42 1 47 2 6 1 10 48 10 120 l0 120 -410 0 c-226 0 -411 -3 -411 -7z"/>
</g>
</svg>
